<svg width="72" height="72" viewBox="0 0 72 72" fill="none" xmlns="http://www.w3.org/2000/svg">
<g clip-path="url(#clip0_2393_861)">
<path d="M12.2364 44.5256C12.2364 44.5256 20.0524 42.3001 24.9161 43.9C24.9161 43.9 28.2484 45.0167 30.2161 46.3737C32.4531 47.9162 38.9031 46.8685 39.5218 46.8655C40.1404 46.8625 43.7784 46.0388 45.8256 49.3343C47.2375 51.6285 45.0413 53.6599 40.0367 54.3034C40.0367 54.3034 35.0418 54.5264 33.2082 54.3368C31.3863 54.1471 30.1766 55.029 30.1766 55.029" stroke="white" stroke-width="2" stroke-linecap="round" stroke-linejoin="round"/>
<path d="M46.2446 51.5106C46.2446 51.5106 60.0679 47.2498 61.9583 47.1121C63.8485 46.9627 64.802 48.5933 64.802 48.5933C64.802 48.5933 66.1652 50.4672 62.6643 53.054C59.1634 55.6408 45.6795 62.4696 40.9626 64.6535C36.2458 66.8374 32.3936 64.4267 30.7918 63.8856C29.2017 63.356 22.0168 59.7352 15.2583 59.7682" stroke="white" stroke-width="2" stroke-miterlimit="10"/>
<path d="M2.17197 45.0986L10.9939 42.6214L16.8356 63.4253L8.01362 65.9025" stroke="white" stroke-width="2" stroke-miterlimit="10" stroke-linejoin="round"/>
<path d="M61.9434 7.15674C61.9434 7.15674 62.96 14.655 58.7895 20.6066C54.7058 26.4453 49.1712 25.7503 47.225 24.5078" stroke="white" stroke-width="2" stroke-linecap="round" stroke-linejoin="round"/>
<path d="M46.8688 24.2294C45.3396 22.4917 43.8017 17.1396 48.9367 12.1958C54.1759 7.15639 61.7349 7 61.7349 7" stroke="white" stroke-width="2" stroke-linecap="round" stroke-linejoin="round"/>
<path d="M25 17.7212C25 17.7212 25.8862 23.5425 30.3 27.0788C34.6269 30.5455 38.6063 28.8165 39.7966 27.4611" stroke="white" stroke-width="2" stroke-linecap="round" stroke-linejoin="round"/>
<path d="M39.9965 27.1664C40.7524 25.533 40.7351 21.1974 35.8173 18.6343C30.804 16.019 25.1217 17.5569 25.1217 17.5569" stroke="white" stroke-width="2" stroke-linecap="round" stroke-linejoin="round"/>
<path d="M43.8887 31.2143C40.8998 25.1671 31.4467 21.6309 31.4467 21.6309" stroke="white" stroke-width="2" stroke-linecap="round" stroke-linejoin="round"/>
<path d="M55.2533 14.8455C55.2533 14.8455 46.9297 25.124 44.9748 29.8332C43.0198 34.5424 43.0893 34.6815 42.6549 36.9318" stroke="white" stroke-width="2" stroke-linecap="round" stroke-linejoin="round"/>
<path d="M27.5617 43.2817C30.3675 39.9438 34.4492 37.6792 39.1374 37.2813C46.7871 36.6321 53.6828 41.1542 56.3769 47.9393" stroke="white" stroke-width="2" stroke-linecap="round"/>
</g>
<defs>
<clipPath id="clip0_2393_861">
<rect width="72" height="72" fill="white"/>
</clipPath>
</defs>
</svg>
