<svg width="72" height="72" viewBox="0 0 72 72" fill="none" xmlns="http://www.w3.org/2000/svg">
<path d="M47.5001 60.6869C47.5001 60.6869 47.4796 55.0666 49.4541 52.1273C49.4541 52.1273 50.8207 50.1173 52.0921 49.0609C53.5375 47.8598 54.0458 43.3692 54.1595 42.9567C54.2731 42.5442 54.4048 39.968 56.9819 39.221C58.7734 38.7098 59.7154 40.552 59.2082 44.0045C59.2082 44.0045 58.4227 47.372 57.9537 48.5574C57.4868 49.735 57.8478 50.7054 57.8478 50.7054" stroke="white" stroke-width="2" stroke-linecap="round" stroke-linejoin="round"/>
<path d="M58.5093 39.349C58.5093 39.349 58.2568 29.3483 58.5185 28.0639C58.7725 26.7773 60.0365 26.4473 60.0365 26.4473C60.0365 26.4473 61.539 25.89 62.6069 28.7047C63.6747 31.5193 65.7006 41.7742 66.2728 45.3232C66.8451 48.8721 64.5197 50.9863 63.8599 51.9517C63.21 52.9115 59.4558 57.0185 58.2142 61.5247" stroke="white" stroke-width="2" stroke-miterlimit="10"/>
<path d="M46 67.4953V61.1582H60.9442V67.4953" stroke="white" stroke-width="2" stroke-miterlimit="10" stroke-linejoin="round"/>
<path d="M24.8006 60.6869C24.8006 60.6869 24.8211 55.0666 22.8465 52.1273C22.8465 52.1273 21.48 50.1173 20.2085 49.0609C18.7632 47.8598 18.2549 43.3692 18.1412 42.9567C18.0276 42.5442 17.8959 39.968 15.3188 39.221C13.5273 38.7098 12.5853 40.552 13.0925 44.0045C13.0925 44.0045 13.8779 47.372 14.347 48.5574C14.8139 49.735 14.4528 50.7054 14.4528 50.7054" stroke="white" stroke-width="2" stroke-linecap="round" stroke-linejoin="round"/>
<path d="M13.7913 39.349C13.7913 39.349 14.0438 29.3483 13.7821 28.0639C13.5282 26.7773 12.2642 26.4473 12.2642 26.4473C12.2642 26.4473 10.7616 25.89 9.69379 28.7047C8.62595 31.5193 6.60007 41.7742 6.02783 45.3232C5.45558 48.8721 7.78094 50.9863 8.44074 51.9517C9.09062 52.9115 12.8448 57.0185 14.0865 61.5247" stroke="white" stroke-width="2" stroke-miterlimit="10"/>
<path d="M26.3006 67.4953V61.1582H11.3564V67.4953" stroke="white" stroke-width="2" stroke-miterlimit="10" stroke-linejoin="round"/>
<mask id="path-7-inside-1_2393_837" fill="white">
<path fill-rule="evenodd" clip-rule="evenodd" d="M35.8477 45.5699C36.0472 45.3703 55.1855 26.2144 56.8035 21.1851C57.3762 19.8046 57.6923 18.2909 57.6923 16.7033C57.6923 10.2397 52.4526 5 45.989 5C41.6534 5 37.8684 7.3576 35.8462 10.8607C33.8239 7.3576 30.0389 5 25.7033 5C19.2397 5 14 10.2397 14 16.7033C14 18.2977 14.3188 19.8176 14.8962 21.2027C16.553 26.259 35.647 45.3706 35.8462 45.5699V45.5714C35.8462 45.5714 35.8464 45.5712 35.847 45.5706C35.8475 45.5712 35.8477 45.5714 35.8477 45.5714V45.5699Z"/>
</mask>
<path d="M35.8477 45.5699L34.4332 44.156L33.8477 44.7417V45.5699H35.8477ZM56.8035 21.1851L54.9562 20.4186L54.9247 20.4944L54.8996 20.5726L56.8035 21.1851ZM35.8462 10.8607L34.114 11.8606L35.8462 14.8612L37.5783 11.8606L35.8462 10.8607ZM14.8962 21.2027L16.7967 20.5799L16.7724 20.5055L16.7422 20.4332L14.8962 21.2027ZM35.8462 45.5699H37.8462V44.7417L37.2607 44.156L35.8462 45.5699ZM35.8462 45.5714H33.8462V50.3753L37.2553 46.9907L35.8462 45.5714ZM35.847 45.5706L37.2612 44.1564L35.8444 42.7396L34.4302 44.159L35.847 45.5706ZM35.8477 45.5714L34.4077 46.9593L37.8477 50.5287V45.5714H35.8477ZM37.2623 46.9837C37.3682 46.8778 42.2253 42.0162 47.2649 36.5434C49.7826 33.8093 52.366 30.9009 54.4303 28.3458C55.4616 27.0693 56.3816 25.8586 57.1045 24.7874C57.7993 23.7578 58.4132 22.7119 58.7074 21.7976L54.8996 20.5726C54.7892 20.9156 54.4511 21.5685 53.7889 22.5499C53.1547 23.4896 52.3125 24.6022 51.3189 25.832C49.3336 28.2893 46.8165 31.1253 44.3224 33.8338C39.3385 39.2462 34.5267 44.0624 34.4332 44.156L37.2623 46.9837ZM58.6508 21.9515C59.3225 20.3324 59.6923 18.5585 59.6923 16.7033H55.6923C55.6923 18.0233 55.4299 19.2769 54.9562 20.4186L58.6508 21.9515ZM59.6923 16.7033C59.6923 9.13518 53.5571 3 45.989 3V7C51.348 7 55.6923 11.3443 55.6923 16.7033H59.6923ZM45.989 3C40.9099 3 36.4789 5.76427 34.114 9.86085L37.5783 11.8606C39.2579 8.95094 42.3968 7 45.989 7V3ZM37.5783 9.86085C35.2134 5.76427 30.7824 3 25.7033 3V7C29.2955 7 32.4344 8.95094 34.114 11.8606L37.5783 9.86085ZM25.7033 3C18.1352 3 12 9.13517 12 16.7033H16C16 11.3443 20.3443 7 25.7033 7V3ZM12 16.7033C12 18.5664 12.3729 20.3475 13.0501 21.9722L16.7422 20.4332C16.2647 19.2876 16 18.0289 16 16.7033H12ZM12.9956 21.8255C13.2945 22.7378 13.9095 23.7822 14.6073 24.8138C15.3324 25.8858 16.2535 27.0965 17.2854 28.3727C19.3508 30.9272 21.9322 33.8324 24.4467 36.5626C29.4799 42.0275 34.3258 46.8779 34.4316 46.9837L37.2607 44.156C37.1673 44.0625 32.3667 39.2575 27.3889 33.8528C24.8979 31.1481 22.3827 28.3149 20.3958 25.8577C19.4015 24.628 18.5575 23.5145 17.9205 22.5727C17.2562 21.5906 16.912 20.9318 16.7967 20.5799L12.9956 21.8255ZM33.8462 45.5699V45.5714H37.8462V45.5699H33.8462ZM35.8462 45.5714C37.2553 46.9907 37.2553 46.9907 37.2553 46.9907C37.2553 46.9907 37.2553 46.9907 37.2553 46.9907C37.2553 46.9907 37.2553 46.9907 37.2553 46.9907C37.2554 46.9907 37.2554 46.9906 37.2554 46.9906C37.2554 46.9906 37.2555 46.9905 37.2555 46.9905C37.2556 46.9904 37.2557 46.9903 37.2558 46.9903C37.2559 46.9901 37.2561 46.9899 37.2562 46.9898C37.2566 46.9895 37.2569 46.9891 37.2572 46.9888C37.2579 46.9881 37.2586 46.9874 37.2593 46.9867C37.2607 46.9853 37.2622 46.9838 37.2637 46.9823L34.4302 44.159C34.4312 44.158 34.4323 44.1569 34.4334 44.1557C34.434 44.1552 34.4346 44.1546 34.4352 44.154C34.4355 44.1537 34.4358 44.1534 34.4361 44.1531C34.4363 44.1529 34.4364 44.1527 34.4366 44.1526C34.4367 44.1525 34.4368 44.1524 34.4368 44.1524C34.4369 44.1523 34.4369 44.1523 34.437 44.1522C34.437 44.1522 34.437 44.1522 34.437 44.1522C34.437 44.1522 34.437 44.1522 34.437 44.1521C34.437 44.1521 34.4371 44.1521 34.4371 44.1521C34.4371 44.1521 34.4371 44.1521 35.8462 45.5714ZM34.4328 46.9849C34.4287 46.9808 34.4246 46.9767 34.4205 46.9725C34.4184 46.9703 34.4163 46.9682 34.4141 46.966C34.4131 46.9649 34.412 46.9638 34.4109 46.9627C34.4104 46.9621 34.4098 46.9616 34.4093 46.961C34.409 46.9607 34.4088 46.9604 34.4085 46.9602C34.4084 46.96 34.4082 46.9599 34.4081 46.9597C34.408 46.9597 34.408 46.9596 34.4079 46.9595C34.4079 46.9595 34.4078 46.9595 34.4078 46.9594C34.4078 46.9594 34.4077 46.9594 34.4077 46.9594C34.4077 46.9593 34.4077 46.9593 35.8477 45.5714C37.2878 44.1835 37.2878 44.1835 37.2878 44.1835C37.2877 44.1835 37.2877 44.1835 37.2877 44.1834C37.2877 44.1834 37.2876 44.1834 37.2876 44.1833C37.2875 44.1833 37.2875 44.1832 37.2874 44.1831C37.2873 44.183 37.2871 44.1828 37.287 44.1827C37.2867 44.1824 37.2864 44.1821 37.2862 44.1819C37.2856 44.1813 37.2851 44.1807 37.2845 44.1802C37.2834 44.179 37.2824 44.1779 37.2813 44.1768C37.2791 44.1745 37.2769 44.1723 37.2746 44.17C37.2702 44.1655 37.2657 44.161 37.2612 44.1564L34.4328 46.9849ZM37.8477 45.5714V45.5699H33.8477V45.5714H37.8477Z" fill="white" mask="url(#path-7-inside-1_2393_837)"/>
</svg>
